<?xml version="1.0" encoding="UTF-8" standalone="no"?>
<!DOCTYPE svg PUBLIC "-//W3C//DTD SVG 1.1//EN"
 "http://www.w3.org/Graphics/SVG/1.1/DTD/svg11.dtd">
<!-- Generated by graphviz version 2.38.0 (20140413.2041)
 -->
<!-- Title: IaM Dataflow Pages: 1 -->
<svg width="435pt" height="548pt"
 viewBox="0.00 0.00 434.83 548.00" xmlns="http://www.w3.org/2000/svg" xmlns:xlink="http://www.w3.org/1999/xlink">
<g id="graph0" class="graph" transform="scale(1 1) rotate(0) translate(4 544)">
<title>IaM Dataflow</title>
<polygon fill="white" stroke="none" points="-4,4 -4,-544 430.835,-544 430.835,4 -4,4"/>
<!-- TITLE -->
<g id="node1" class="node"><title>TITLE</title>
<polygon fill="none" stroke="black" points="94,-540 -7.10543e-15,-540 -7.10543e-15,-504 94,-504 94,-540"/>
<text text-anchor="middle" x="47" y="-518.3" font-family="Times,serif" font-size="14.00">IaM Dataflow</text>
</g>
<!-- ohai -->
<g id="node2" class="node"><title>ohai</title>
<g id="a_node2"><a xlink:title="External API Call">
<text text-anchor="middle" x="139" y="-518.3" font-family="Times,serif" font-size="14.00">ohai</text>
</a>
</g>
</g>
<!-- disk_usage -->
<g id="node3" class="node"><title>disk_usage</title>
<g id="a_node3"><a xlink:title="API return field">
<ellipse fill="none" stroke="black" cx="139" cy="-450" rx="50.0912" ry="18"/>
<text text-anchor="middle" x="139" y="-446.3" font-family="Times,serif" font-size="14.00">disk_usage</text>
</a>
</g>
</g>
<!-- ohai&#45;&gt;disk_usage -->
<g id="edge1" class="edge"><title>ohai&#45;&gt;disk_usage</title>
<path fill="none" stroke="black" d="M139,-503.697C139,-495.983 139,-486.712 139,-478.112"/>
<polygon fill="black" stroke="black" points="142.5,-478.104 139,-468.104 135.5,-478.104 142.5,-478.104"/>
</g>
<!-- ohai_collect() -->
<g id="node4" class="node"><title>ohai_collect()</title>
<g id="a_node4"><a xlink:title="Plugin method for recording data in the database.">
<polygon fill="none" stroke="black" points="139,-396 54.375,-378 139,-360 223.625,-378 139,-396"/>
<text text-anchor="middle" x="139" y="-374.3" font-family="Times,serif" font-size="14.00">ohai_collect()</text>
</a>
</g>
</g>
<!-- disk_usage&#45;&gt;ohai_collect() -->
<g id="edge2" class="edge"><title>disk_usage&#45;&gt;ohai_collect()</title>
<path fill="none" stroke="black" d="M139,-431.697C139,-423.983 139,-414.712 139,-406.112"/>
<polygon fill="black" stroke="black" points="142.5,-406.104 139,-396.104 135.5,-406.104 142.5,-406.104"/>
</g>
<!-- H_STORE -->
<g id="node5" class="node"><title>H_STORE</title>
<g id="a_node5"><a xlink:title="Postgres Key:Value Store">
<polygon fill="none" stroke="black" points="274,-324 202,-324 198,-320 198,-288 270,-288 274,-292 274,-324"/>
<polyline fill="none" stroke="black" points="270,-320 198,-320 "/>
<polyline fill="none" stroke="black" points="270,-320 270,-288 "/>
<polyline fill="none" stroke="black" points="270,-320 274,-324 "/>
<text text-anchor="middle" x="236" y="-302.3" font-family="Times,serif" font-size="14.00">H_STORE</text>
</a>
</g>
</g>
<!-- ohai_collect()&#45;&gt;H_STORE -->
<g id="edge3" class="edge"><title>ohai_collect()&#45;&gt;H_STORE</title>
<path fill="none" stroke="black" d="M157.245,-363.834C170.396,-354.343 188.487,-341.288 204.015,-330.082"/>
<polygon fill="black" stroke="black" points="206.268,-332.772 212.329,-324.082 202.172,-327.096 206.268,-332.772"/>
</g>
<!-- Plugin.store() -->
<g id="node9" class="node"><title>Plugin.store()</title>
<g id="a_node9"><a xlink:title="Plugin method for recording data in the database.">
<polygon fill="none" stroke="black" points="236,-252 152.213,-234 236,-216 319.787,-234 236,-252"/>
<text text-anchor="middle" x="236" y="-230.3" font-family="Times,serif" font-size="14.00">Plugin.store()</text>
</a>
</g>
</g>
<!-- H_STORE&#45;&gt;Plugin.store() -->
<g id="edge7" class="edge"><title>H_STORE&#45;&gt;Plugin.store()</title>
<path fill="none" stroke="black" d="M236,-287.697C236,-279.983 236,-270.712 236,-262.112"/>
<polygon fill="black" stroke="black" points="239.5,-262.104 236,-252.104 232.5,-262.104 239.5,-262.104"/>
</g>
<!-- Ganeti -->
<g id="node6" class="node"><title>Ganeti</title>
<g id="a_node6"><a xlink:title="External API Call">
<text text-anchor="middle" x="334" y="-518.3" font-family="Times,serif" font-size="14.00">Ganeti</text>
</a>
</g>
</g>
<!-- disk_size -->
<g id="node7" class="node"><title>disk_size</title>
<g id="a_node7"><a xlink:title="API return field">
<ellipse fill="none" stroke="black" cx="334" cy="-450" rx="43.5923" ry="18"/>
<text text-anchor="middle" x="334" y="-446.3" font-family="Times,serif" font-size="14.00">disk_size</text>
</a>
</g>
</g>
<!-- Ganeti&#45;&gt;disk_size -->
<g id="edge4" class="edge"><title>Ganeti&#45;&gt;disk_size</title>
<path fill="none" stroke="black" d="M334,-503.697C334,-495.983 334,-486.712 334,-478.112"/>
<polygon fill="black" stroke="black" points="337.5,-478.104 334,-468.104 330.5,-478.104 337.5,-478.104"/>
</g>
<!-- ganeti_collect() -->
<g id="node8" class="node"><title>ganeti_collect()</title>
<g id="a_node8"><a xlink:title="Plugin method for reporting data from the database to the user.">
<polygon fill="none" stroke="black" points="334,-396 241.33,-378 334,-360 426.67,-378 334,-396"/>
<text text-anchor="middle" x="334" y="-374.3" font-family="Times,serif" font-size="14.00">ganeti_collect()</text>
</a>
</g>
</g>
<!-- disk_size&#45;&gt;ganeti_collect() -->
<g id="edge5" class="edge"><title>disk_size&#45;&gt;ganeti_collect()</title>
<path fill="none" stroke="black" d="M334,-431.697C334,-423.983 334,-414.712 334,-406.112"/>
<polygon fill="black" stroke="black" points="337.5,-406.104 334,-396.104 330.5,-406.104 337.5,-406.104"/>
</g>
<!-- ganeti_collect()&#45;&gt;H_STORE -->
<g id="edge6" class="edge"><title>ganeti_collect()&#45;&gt;H_STORE</title>
<path fill="none" stroke="black" d="M315.105,-363.503C301.87,-354.05 283.853,-341.181 268.356,-330.111"/>
<polygon fill="black" stroke="black" points="270.224,-327.144 260.052,-324.18 266.155,-332.84 270.224,-327.144"/>
</g>
<!-- DB -->
<g id="node10" class="node"><title>DB</title>
<g id="a_node10"><a xlink:title="Postgres Backed Database">
<polygon fill="none" stroke="black" points="263,-180 213,-180 209,-176 209,-144 259,-144 263,-148 263,-180"/>
<polyline fill="none" stroke="black" points="259,-176 209,-176 "/>
<polyline fill="none" stroke="black" points="259,-176 259,-144 "/>
<polyline fill="none" stroke="black" points="259,-176 263,-180 "/>
<text text-anchor="middle" x="236" y="-158.3" font-family="Times,serif" font-size="14.00">DB</text>
</a>
</g>
</g>
<!-- Plugin.store()&#45;&gt;DB -->
<g id="edge8" class="edge"><title>Plugin.store()&#45;&gt;DB</title>
<path fill="none" stroke="black" d="M236,-215.697C236,-207.983 236,-198.712 236,-190.112"/>
<polygon fill="black" stroke="black" points="239.5,-190.104 236,-180.104 232.5,-190.104 239.5,-190.104"/>
</g>
<!-- Plugin.report() -->
<g id="node11" class="node"><title>Plugin.report()</title>
<g id="a_node11"><a xlink:title="Plugin method for reporting data from the database to the user.">
<polygon fill="none" stroke="black" points="236,-108 146.683,-90 236,-72 325.317,-90 236,-108"/>
<text text-anchor="middle" x="236" y="-86.3" font-family="Times,serif" font-size="14.00">Plugin.report()</text>
</a>
</g>
</g>
<!-- DB&#45;&gt;Plugin.report() -->
<g id="edge9" class="edge"><title>DB&#45;&gt;Plugin.report()</title>
<path fill="none" stroke="black" d="M236,-143.697C236,-135.983 236,-126.712 236,-118.112"/>
<polygon fill="black" stroke="black" points="239.5,-118.104 236,-108.104 232.5,-118.104 239.5,-118.104"/>
</g>
<!-- CSV -->
<g id="node12" class="node"><title>CSV</title>
<g id="a_node12"><a xlink:title="Output Format">
<text text-anchor="middle" x="163" y="-14.3" font-family="Times,serif" font-size="14.00">CSV</text>
</a>
</g>
</g>
<!-- Plugin.report()&#45;&gt;CSV -->
<g id="edge10" class="edge"><title>Plugin.report()&#45;&gt;CSV</title>
<path fill="none" stroke="black" d="M221.227,-74.8345C211.749,-65.7459 199.198,-53.7105 188.176,-43.1413"/>
<polygon fill="black" stroke="black" points="190.486,-40.5077 180.846,-36.1127 185.642,-45.5602 190.486,-40.5077"/>
</g>
<!-- HTML -->
<g id="node13" class="node"><title>HTML</title>
<g id="a_node13"><a xlink:title="Output Format">
<text text-anchor="middle" x="236" y="-14.3" font-family="Times,serif" font-size="14.00">HTML</text>
</a>
</g>
</g>
<!-- Plugin.report()&#45;&gt;HTML -->
<g id="edge11" class="edge"><title>Plugin.report()&#45;&gt;HTML</title>
<path fill="none" stroke="black" d="M236,-71.6966C236,-63.9827 236,-54.7125 236,-46.1124"/>
<polygon fill="black" stroke="black" points="239.5,-46.1043 236,-36.1043 232.5,-46.1044 239.5,-46.1043"/>
</g>
<!-- JSON -->
<g id="node14" class="node"><title>JSON</title>
<g id="a_node14"><a xlink:title="Output Format">
<text text-anchor="middle" x="309" y="-14.3" font-family="Times,serif" font-size="14.00">JSON</text>
</a>
</g>
</g>
<!-- Plugin.report()&#45;&gt;JSON -->
<g id="edge12" class="edge"><title>Plugin.report()&#45;&gt;JSON</title>
<path fill="none" stroke="black" d="M250.773,-74.8345C260.251,-65.7459 272.802,-53.7105 283.824,-43.1413"/>
<polygon fill="black" stroke="black" points="286.358,-45.5602 291.154,-36.1127 281.514,-40.5077 286.358,-45.5602"/>
</g>
</g>
</svg>
