<?xml version="1.0" encoding="UTF-8" standalone="no"?>
<!DOCTYPE svg PUBLIC "-//W3C//DTD SVG 1.1//EN"
 "http://www.w3.org/Graphics/SVG/1.1/DTD/svg11.dtd">
<!-- Generated by graphviz version 2.38.0 (20140413.2041)
 -->
<!-- Title: IaM Dataflow Pages: 1 -->
<svg width="442pt" height="548pt"
 viewBox="0.00 0.00 441.59 548.00" xmlns="http://www.w3.org/2000/svg" xmlns:xlink="http://www.w3.org/1999/xlink">
<g id="graph0" class="graph" transform="scale(1 1) rotate(0) translate(4 544)">
<title>IaM Dataflow</title>
<polygon fill="white" stroke="none" points="-4,4 -4,-544 437.592,-544 437.592,4 -4,4"/>
<!-- TITLE -->
<g id="node1" class="node"><title>TITLE</title>
<polygon fill="none" stroke="black" points="92,-540 0,-540 0,-504 92,-504 92,-540"/>
<text text-anchor="middle" x="46" y="-518.3" font-family="Times,serif" font-size="14.00">IaM Dataflow</text>
</g>
<!-- ohai -->
<g id="node2" class="node"><title>ohai</title>
<g id="a_node2"><a xlink:title="External API Call">
<text text-anchor="middle" x="137" y="-518.3" font-family="Times,serif" font-size="14.00">ohai</text>
</a>
</g>
</g>
<!-- disk_usage -->
<g id="node3" class="node"><title>disk_usage</title>
<g id="a_node3"><a xlink:title="API return field">
<ellipse fill="none" stroke="black" cx="137" cy="-450" rx="49.2915" ry="18"/>
<text text-anchor="middle" x="137" y="-446.3" font-family="Times,serif" font-size="14.00">disk_usage</text>
</a>
</g>
</g>
<!-- ohai&#45;&gt;disk_usage -->
<g id="edge1" class="edge"><title>ohai&#45;&gt;disk_usage</title>
<path fill="none" stroke="black" d="M137,-503.697C137,-495.983 137,-486.712 137,-478.112"/>
<polygon fill="black" stroke="black" points="140.5,-478.104 137,-468.104 133.5,-478.104 140.5,-478.104"/>
</g>
<!-- ohai_collect() -->
<g id="node4" class="node"><title>ohai_collect()</title>
<g id="a_node4"><a xlink:title="Plugin method for recording data in the database.">
<polygon fill="none" stroke="black" points="137,-396 49.8598,-378 137,-360 224.14,-378 137,-396"/>
<text text-anchor="middle" x="137" y="-374.3" font-family="Times,serif" font-size="14.00">ohai_collect()</text>
</a>
</g>
</g>
<!-- disk_usage&#45;&gt;ohai_collect() -->
<g id="edge2" class="edge"><title>disk_usage&#45;&gt;ohai_collect()</title>
<path fill="none" stroke="black" d="M137,-431.697C137,-423.983 137,-414.712 137,-406.112"/>
<polygon fill="black" stroke="black" points="140.5,-406.104 137,-396.104 133.5,-406.104 140.5,-406.104"/>
</g>
<!-- H_STORE -->
<g id="node5" class="node"><title>H_STORE</title>
<g id="a_node5"><a xlink:title="Postgres Key:Value Store">
<polygon fill="none" stroke="black" points="275.5,-324 202.5,-324 198.5,-320 198.5,-288 271.5,-288 275.5,-292 275.5,-324"/>
<polyline fill="none" stroke="black" points="271.5,-320 198.5,-320 "/>
<polyline fill="none" stroke="black" points="271.5,-320 271.5,-288 "/>
<polyline fill="none" stroke="black" points="271.5,-320 275.5,-324 "/>
<text text-anchor="middle" x="237" y="-302.3" font-family="Times,serif" font-size="14.00">H_STORE</text>
</a>
</g>
</g>
<!-- ohai_collect()&#45;&gt;H_STORE -->
<g id="edge3" class="edge"><title>ohai_collect()&#45;&gt;H_STORE</title>
<path fill="none" stroke="black" d="M155.809,-363.834C169.367,-354.343 188.018,-341.288 204.025,-330.082"/>
<polygon fill="black" stroke="black" points="206.412,-332.684 212.597,-324.082 202.398,-326.949 206.412,-332.684"/>
</g>
<!-- Plugin.store() -->
<g id="node9" class="node"><title>Plugin.store()</title>
<g id="a_node9"><a xlink:title="Plugin method for recording data in the database.">
<polygon fill="none" stroke="black" points="237,-252 151.537,-234 237,-216 322.463,-234 237,-252"/>
<text text-anchor="middle" x="237" y="-230.3" font-family="Times,serif" font-size="14.00">Plugin.store()</text>
</a>
</g>
</g>
<!-- H_STORE&#45;&gt;Plugin.store() -->
<g id="edge7" class="edge"><title>H_STORE&#45;&gt;Plugin.store()</title>
<path fill="none" stroke="black" d="M237,-287.697C237,-279.983 237,-270.712 237,-262.112"/>
<polygon fill="black" stroke="black" points="240.5,-262.104 237,-252.104 233.5,-262.104 240.5,-262.104"/>
</g>
<!-- Ganeti -->
<g id="node6" class="node"><title>Ganeti</title>
<g id="a_node6"><a xlink:title="External API Call">
<text text-anchor="middle" x="338" y="-518.3" font-family="Times,serif" font-size="14.00">Ganeti</text>
</a>
</g>
</g>
<!-- disk_size -->
<g id="node7" class="node"><title>disk_size</title>
<g id="a_node7"><a xlink:title="API return field">
<ellipse fill="none" stroke="black" cx="338" cy="-450" rx="43.5923" ry="18"/>
<text text-anchor="middle" x="338" y="-446.3" font-family="Times,serif" font-size="14.00">disk_size</text>
</a>
</g>
</g>
<!-- Ganeti&#45;&gt;disk_size -->
<g id="edge4" class="edge"><title>Ganeti&#45;&gt;disk_size</title>
<path fill="none" stroke="black" d="M338,-503.697C338,-495.983 338,-486.712 338,-478.112"/>
<polygon fill="black" stroke="black" points="341.5,-478.104 338,-468.104 334.5,-478.104 341.5,-478.104"/>
</g>
<!-- ganeti_collect() -->
<g id="node8" class="node"><title>ganeti_collect()</title>
<g id="a_node8"><a xlink:title="Plugin method for reporting data from the database to the user.">
<polygon fill="none" stroke="black" points="338,-396 242.315,-378 338,-360 433.685,-378 338,-396"/>
<text text-anchor="middle" x="338" y="-374.3" font-family="Times,serif" font-size="14.00">ganeti_collect()</text>
</a>
</g>
</g>
<!-- disk_size&#45;&gt;ganeti_collect() -->
<g id="edge5" class="edge"><title>disk_size&#45;&gt;ganeti_collect()</title>
<path fill="none" stroke="black" d="M338,-431.697C338,-423.983 338,-414.712 338,-406.112"/>
<polygon fill="black" stroke="black" points="341.5,-406.104 338,-396.104 334.5,-406.104 341.5,-406.104"/>
</g>
<!-- ganeti_collect()&#45;&gt;H_STORE -->
<g id="edge6" class="edge"><title>ganeti_collect()&#45;&gt;H_STORE</title>
<path fill="none" stroke="black" d="M318.526,-363.503C304.887,-354.05 286.318,-341.181 270.346,-330.111"/>
<polygon fill="black" stroke="black" points="272.001,-327 261.788,-324.18 268.013,-332.753 272.001,-327"/>
</g>
<!-- DB -->
<g id="node10" class="node"><title>DB</title>
<g id="a_node10"><a xlink:title="Postgres Backed Database">
<polygon fill="none" stroke="black" points="264,-180 214,-180 210,-176 210,-144 260,-144 264,-148 264,-180"/>
<polyline fill="none" stroke="black" points="260,-176 210,-176 "/>
<polyline fill="none" stroke="black" points="260,-176 260,-144 "/>
<polyline fill="none" stroke="black" points="260,-176 264,-180 "/>
<text text-anchor="middle" x="237" y="-158.3" font-family="Times,serif" font-size="14.00">DB</text>
</a>
</g>
</g>
<!-- Plugin.store()&#45;&gt;DB -->
<g id="edge8" class="edge"><title>Plugin.store()&#45;&gt;DB</title>
<path fill="none" stroke="black" d="M237,-215.697C237,-207.983 237,-198.712 237,-190.112"/>
<polygon fill="black" stroke="black" points="240.5,-190.104 237,-180.104 233.5,-190.104 240.5,-190.104"/>
</g>
<!-- Plugin.report() -->
<g id="node11" class="node"><title>Plugin.report()</title>
<g id="a_node11"><a xlink:title="Plugin method for reporting data from the database to the user.">
<polygon fill="none" stroke="black" points="237,-108 145.168,-90 237,-72 328.832,-90 237,-108"/>
<text text-anchor="middle" x="237" y="-86.3" font-family="Times,serif" font-size="14.00">Plugin.report()</text>
</a>
</g>
</g>
<!-- DB&#45;&gt;Plugin.report() -->
<g id="edge9" class="edge"><title>DB&#45;&gt;Plugin.report()</title>
<path fill="none" stroke="black" d="M237,-143.697C237,-135.983 237,-126.712 237,-118.112"/>
<polygon fill="black" stroke="black" points="240.5,-118.104 237,-108.104 233.5,-118.104 240.5,-118.104"/>
</g>
<!-- CSV -->
<g id="node12" class="node"><title>CSV</title>
<g id="a_node12"><a xlink:title="Output Format">
<text text-anchor="middle" x="164" y="-14.3" font-family="Times,serif" font-size="14.00">CSV</text>
</a>
</g>
</g>
<!-- Plugin.report()&#45;&gt;CSV -->
<g id="edge10" class="edge"><title>Plugin.report()&#45;&gt;CSV</title>
<path fill="none" stroke="black" d="M222.227,-74.8345C212.749,-65.7459 200.198,-53.7105 189.176,-43.1413"/>
<polygon fill="black" stroke="black" points="191.486,-40.5077 181.846,-36.1127 186.642,-45.5602 191.486,-40.5077"/>
</g>
<!-- HTML -->
<g id="node13" class="node"><title>HTML</title>
<g id="a_node13"><a xlink:title="Output Format">
<text text-anchor="middle" x="237" y="-14.3" font-family="Times,serif" font-size="14.00">HTML</text>
</a>
</g>
</g>
<!-- Plugin.report()&#45;&gt;HTML -->
<g id="edge11" class="edge"><title>Plugin.report()&#45;&gt;HTML</title>
<path fill="none" stroke="black" d="M237,-71.6966C237,-63.9827 237,-54.7125 237,-46.1124"/>
<polygon fill="black" stroke="black" points="240.5,-46.1043 237,-36.1043 233.5,-46.1044 240.5,-46.1043"/>
</g>
<!-- JSON -->
<g id="node14" class="node"><title>JSON</title>
<g id="a_node14"><a xlink:title="Output Format">
<text text-anchor="middle" x="310" y="-14.3" font-family="Times,serif" font-size="14.00">JSON</text>
</a>
</g>
</g>
<!-- Plugin.report()&#45;&gt;JSON -->
<g id="edge12" class="edge"><title>Plugin.report()&#45;&gt;JSON</title>
<path fill="none" stroke="black" d="M251.773,-74.8345C261.251,-65.7459 273.802,-53.7105 284.824,-43.1413"/>
<polygon fill="black" stroke="black" points="287.358,-45.5602 292.154,-36.1127 282.514,-40.5077 287.358,-45.5602"/>
</g>
</g>
</svg>
